<?xml version="1.0" encoding="UTF-8" standalone="no"?><svg xmlns="http://www.w3.org/2000/svg" xmlns:xlink="http://www.w3.org/1999/xlink" contentScriptType="application/ecmascript" contentStyleType="text/css" height="1185px" preserveAspectRatio="none" style="width:919px;height:1185px;" version="1.1" viewBox="0 0 919 1185" width="919px" zoomAndPan="magnify"><defs><filter height="300%" id="f9mt8vitysque" width="300%" x="-1" y="-1"><feGaussianBlur result="blurOut" stdDeviation="2.0"/><feColorMatrix in="blurOut" result="blurOut2" type="matrix" values="0 0 0 0 0 0 0 0 0 0 0 0 0 0 0 0 0 0 .4 0"/><feOffset dx="4.0" dy="4.0" in="blurOut2" result="blurOut3"/><feBlend in="SourceGraphic" in2="blurOut3" mode="normal"/></filter></defs><g><!--MD5=[06ad47eb07219c4a4de9aa9a3bbf8b42]
cluster NebulaX Coffee Shop System--><rect fill="#FFFFFF" filter="url(#f9mt8vitysque)" height="964" style="stroke:#000000;stroke-width:1.5;" width="670" x="237" y="123.5762"/><text fill="#000000" font-family="sans-serif" font-size="14" font-weight="bold" lengthAdjust="spacing" textLength="203" x="470.5" y="140.1094">NebulaX Coffee Shop System</text><ellipse cx="785.0017" cy="195.5765" fill="#ADD8E6" filter="url(#f9mt8vitysque)" rx="93.0017" ry="21.0003" style="stroke:#00008B;stroke-width:1.5;"/><text fill="#000000" font-family="sans-serif" font-size="14" lengthAdjust="spacing" textLength="145" x="712.5017" y="199.305">Authenticate Employee</text><ellipse cx="407.5066" cy="269.7775" fill="#ADD8E6" filter="url(#f9mt8vitysque)" rx="84.0066" ry="19.2013" style="stroke:#00008B;stroke-width:1.5;"/><text fill="#000000" font-family="sans-serif" font-size="14" lengthAdjust="spacing" textLength="124" x="345.5066" y="273.506">Create Quick Order</text><ellipse cx="785.0894" cy="286.794" fill="#ADD8E6" filter="url(#f9mt8vitysque)" rx="104.0894" ry="23.2179" style="stroke:#00008B;stroke-width:1.5;"/><text fill="#000000" font-family="sans-serif" font-size="14" lengthAdjust="spacing" textLength="170" x="700.0894" y="290.5226">Calculate Total &amp; Tax (IVA)</text><ellipse cx="785.066" cy="746.4894" fill="#ADD8E6" filter="url(#f9mt8vitysque)" rx="92.566" ry="20.9132" style="stroke:#00008B;stroke-width:1.5;"/><text fill="#000000" font-family="sans-serif" font-size="14" lengthAdjust="spacing" textLength="144" x="713.066" y="750.2179">Apply Special Discount</text><ellipse cx="407.5083" cy="187.5778" fill="#ADD8E6" filter="url(#f9mt8vitysque)" rx="128.0083" ry="28.0017" style="stroke:#00008B;stroke-width:1.5;"/><text fill="#000000" font-family="sans-serif" font-size="14" lengthAdjust="spacing" textLength="222" x="296.5083" y="191.3063">Process Payment (Visitor Dispatch)</text><ellipse cx="407.5069" cy="432.4775" fill="#ADD8E6" filter="url(#f9mt8vitysque)" rx="77.5069" ry="17.9014" style="stroke:#00008B;stroke-width:1.5;"/><text fill="#000000" font-family="sans-serif" font-size="14" lengthAdjust="spacing" textLength="108" x="351.3567" y="436.7922">View KDS Queue</text><ellipse cx="407.705" cy="351.5172" fill="#ADD8E6" filter="url(#f9mt8vitysque)" rx="125.205" ry="27.441" style="stroke:#00008B;stroke-width:1.5;"/><text fill="#000000" font-family="sans-serif" font-size="14" lengthAdjust="spacing" textLength="216" x="299.705" y="355.2457">Update Status to Preparing/Ready</text><ellipse cx="784.8935" cy="368.6549" fill="#ADD8E6" filter="url(#f9mt8vitysque)" rx="105.8935" ry="23.5787" style="stroke:#00008B;stroke-width:1.5;"/><text fill="#000000" font-family="sans-serif" font-size="14" lengthAdjust="spacing" textLength="174" x="697.8935" y="372.3834">Deduct Inventory by Recipe</text><ellipse cx="407.5083" cy="670.5778" fill="#ADD8E6" filter="url(#f9mt8vitysque)" rx="128.0083" ry="28.0017" style="stroke:#00008B;stroke-width:1.5;"/><text fill="#000000" font-family="sans-serif" font-size="14" lengthAdjust="spacing" textLength="222" x="296.5083" y="674.3063">Manage Tables (State/Assignment)</text><ellipse cx="407.5042" cy="508.577" fill="#ADD8E6" filter="url(#f9mt8vitysque)" rx="100.5042" ry="22.5008" style="stroke:#00008B;stroke-width:1.5;"/><text fill="#000000" font-family="sans-serif" font-size="14" lengthAdjust="spacing" textLength="162" x="326.5042" y="512.3055">Manage Machines (State)</text><ellipse cx="407.3297" cy="586.6421" fill="#ADD8E6" filter="url(#f9mt8vitysque)" rx="90.8297" ry="20.5659" style="stroke:#00008B;stroke-width:1.5;"/><text fill="#000000" font-family="sans-serif" font-size="14" lengthAdjust="spacing" textLength="140" x="337.3297" y="590.3706">Mark Order as Served</text><ellipse cx="407.4138" cy="846.4589" fill="#ADD8E6" filter="url(#f9mt8vitysque)" rx="137.4138" ry="29.8828" style="stroke:#00008B;stroke-width:1.5;"/><text fill="#000000" font-family="sans-serif" font-size="14" lengthAdjust="spacing" textLength="242" x="286.4138" y="850.1874">Manage Catalog (Products &amp; Recipes)</text><ellipse cx="407.3821" cy="940.4526" fill="#ADD8E6" filter="url(#f9mt8vitysque)" rx="129.8821" ry="28.3764" style="stroke:#00008B;stroke-width:1.5;"/><text fill="#000000" font-family="sans-serif" font-size="14" lengthAdjust="spacing" textLength="226" x="294.3821" y="944.1811">Audit Inventory (Standardized Units)</text><ellipse cx="407.5357" cy="1037.3833" fill="#ADD8E6" filter="url(#f9mt8vitysque)" rx="154.5357" ry="33.3071" style="stroke:#00008B;stroke-width:1.5;"/><text fill="#000000" font-family="sans-serif" font-size="14" lengthAdjust="spacing" textLength="278" x="268.5357" y="1041.1118">Manage Human Resources (Hire/Fire/Shifts)</text><ellipse cx="407.5675" cy="757.7897" fill="#ADD8E6" filter="url(#f9mt8vitysque)" rx="109.0675" ry="24.2135" style="stroke:#00008B;stroke-width:1.5;"/><text fill="#000000" font-family="sans-serif" font-size="14" lengthAdjust="spacing" textLength="181" x="317.0675" y="761.5182">Generate Financial Z-Report</text><!--MD5=[626ff6ece95d570cc2519224441d60ff]
entity Cashier--><ellipse cx="53" cy="143.5762" fill="#FEFECE" filter="url(#f9mt8vitysque)" rx="8" ry="8" style="stroke:#A80036;stroke-width:1.5;"/><path d="M53,151.5762 L53,178.5762 M40,159.5762 L66,159.5762 M53,178.5762 L40,193.5762 M53,178.5762 L66,193.5762 " fill="none" filter="url(#f9mt8vitysque)" style="stroke:#A80036;stroke-width:1.5;"/><text fill="#000000" font-family="sans-serif" font-size="14" lengthAdjust="spacing" textLength="49" x="28.5" y="213.6094">Cashier</text><!--MD5=[54ba06d46e5d88b1a77491638dc94db9]
entity Barista--><ellipse cx="53" cy="400.5762" fill="#FEFECE" filter="url(#f9mt8vitysque)" rx="8" ry="8" style="stroke:#A80036;stroke-width:1.5;"/><path d="M53,408.5762 L53,435.5762 M40,416.5762 L66,416.5762 M53,435.5762 L40,450.5762 M53,435.5762 L66,450.5762 " fill="none" filter="url(#f9mt8vitysque)" style="stroke:#A80036;stroke-width:1.5;"/><text fill="#000000" font-family="sans-serif" font-size="14" lengthAdjust="spacing" textLength="86" x="10" y="470.6094">Barista / Chef</text><!--MD5=[323c25cdec349f5ea5907cb1b91ccd49]
entity Waiter--><ellipse cx="53" cy="576.5762" fill="#FEFECE" filter="url(#f9mt8vitysque)" rx="8" ry="8" style="stroke:#A80036;stroke-width:1.5;"/><path d="M53,584.5762 L53,611.5762 M40,592.5762 L66,592.5762 M53,611.5762 L40,626.5762 M53,611.5762 L66,626.5762 " fill="none" filter="url(#f9mt8vitysque)" style="stroke:#A80036;stroke-width:1.5;"/><text fill="#000000" font-family="sans-serif" font-size="14" lengthAdjust="spacing" textLength="41" x="32.5" y="646.6094">Waiter</text><!--MD5=[327d8b0cc9017ef0d2f4054fa6547e20]
entity Manager--><ellipse cx="53" cy="814.5762" fill="#FEFECE" filter="url(#f9mt8vitysque)" rx="8" ry="8" style="stroke:#A80036;stroke-width:1.5;"/><path d="M53,822.5762 L53,849.5762 M40,830.5762 L66,830.5762 M53,849.5762 L40,864.5762 M53,849.5762 L66,864.5762 " fill="none" filter="url(#f9mt8vitysque)" style="stroke:#A80036;stroke-width:1.5;"/><text fill="#000000" font-family="sans-serif" font-size="14" lengthAdjust="spacing" textLength="94" x="6" y="884.6094">Store Manager</text><!--MD5=[ae78ca0dd1f49bdd788e5556d70823ac]
entity Customer--><ellipse cx="53" cy="272.5762" fill="#FEFECE" filter="url(#f9mt8vitysque)" rx="8" ry="8" style="stroke:#A80036;stroke-width:1.5;"/><path d="M53,280.5762 L53,307.5762 M40,288.5762 L66,288.5762 M53,307.5762 L40,322.5762 M53,307.5762 L66,322.5762 " fill="none" filter="url(#f9mt8vitysque)" style="stroke:#A80036;stroke-width:1.5;"/><text fill="#000000" font-family="sans-serif" font-size="14" lengthAdjust="spacing" textLength="61" x="22.5" y="342.6094">Customer</text><!--MD5=[72a9586c6036bc828fb9ec987b717d65]
entity PaymentGateway--><ellipse cx="785" cy="34.6855" fill="#FEFECE" filter="url(#f9mt8vitysque)" rx="8" ry="8" style="stroke:#A80036;stroke-width:1.5;"/><path d="M785,42.6855 L785,69.6855 M772,50.6855 L798,50.6855 M785,69.6855 L772,84.6855 M785,69.6855 L798,84.6855 " fill="none" filter="url(#f9mt8vitysque)" style="stroke:#A80036;stroke-width:1.5;"/><text fill="#000000" font-family="sans-serif" font-size="14" lengthAdjust="spacing" textLength="114" x="728" y="104.7188">Payment Gateway</text><text fill="#000000" font-family="sans-serif" font-size="14" font-style="italic" lengthAdjust="spacing" textLength="117" x="726.5" y="22.1094">«External System»</text><!--MD5=[63045405aa6518da62cfd9c6f35bfe2e]
link Cashier to UC_CreateOrder--><path d="M77.53,184.1462 C110.9,196.1062 174.04,217.9462 229,232.5762 C263.94,241.8762 303.25,250.2762 335.99,256.7162 " fill="none" id="Cashier-to-UC_CreateOrder" style="stroke:#000000;stroke-width:1.0;"/><polygon fill="#000000" points="341.18,257.7362,333.1107,252.0894,336.2722,256.7803,331.5813,259.9418,341.18,257.7362" style="stroke:#000000;stroke-width:1.0;"/><!--MD5=[5014f7775944a790b0486defd7972b83]
link Cashier to UC_Payment--><path d="M77.68,176.3862 C117.93,177.7562 202.46,180.6262 275.73,183.1262 " fill="none" id="Cashier-to-UC_Payment" style="stroke:#000000;stroke-width:1.0;"/><polygon fill="#000000" points="280.99,183.3062,272.1323,179.0001,275.9929,183.1348,271.8582,186.9954,280.99,183.3062" style="stroke:#000000;stroke-width:1.0;"/><!--MD5=[b3cc97014b2f52b0f202b042fe44bcbc]
link UC_CreateOrder to UC_Auth--><path d="M471.35,257.1862 C536.9,244.2762 639.62,224.0262 709.28,210.2962 " fill="none" id="UC_CreateOrder-to-UC_Auth" style="stroke:#000000;stroke-width:1.0;stroke-dasharray:7.0,7.0;"/><polygon fill="#000000" points="714.24,209.3262,704.634,207.1527,709.3355,210.2985,706.1897,215,714.24,209.3262" style="stroke:#000000;stroke-width:1.0;"/><text fill="#000000" font-family="sans-serif" font-size="13" lengthAdjust="spacing" textLength="55" x="593" y="221.0713">«include»</text><!--MD5=[0c0b91c2aaf25635540d2d32b685ead7]
link UC_CreateOrder to UC_CalcTotal--><path d="M468.49,282.7362 C504.17,289.8862 550.44,297.9762 592,301.5762 C617.24,303.7562 623.71,302.9762 649,301.5762 C662.11,300.8462 675.9,299.7262 689.45,298.4262 " fill="none" id="UC_CreateOrder-to-UC_CalcTotal" style="stroke:#000000;stroke-width:1.0;stroke-dasharray:7.0,7.0;"/><polygon fill="#000000" points="694.43,297.9362,685.0846,294.8277,689.4536,298.421,685.8603,302.79,694.43,297.9362" style="stroke:#000000;stroke-width:1.0;"/><text fill="#000000" font-family="sans-serif" font-size="13" lengthAdjust="spacing" textLength="55" x="593" y="298.0713">«include»</text><!--MD5=[b9acf7ab099e60bde3ca628c920163f9]
reverse link UC_CreateOrder to UC_Discount--><path d="M494.38,275.1762 C518.59,280.4962 543.38,289.9662 562,306.5762 C590.96,332.4062 576.12,353.1662 592,388.5762 C651.3,520.8262 739.12,671.4362 771.46,725.7162 " fill="none" id="UC_CreateOrder-backto-UC_Discount" style="stroke:#000000;stroke-width:1.0;stroke-dasharray:7.0,7.0;"/><polygon fill="#000000" points="489.22,274.1062,497.2063,279.8698,494.1134,275.1333,498.8498,272.0404,489.22,274.1062" style="stroke:#000000;stroke-width:1.0;"/><text fill="#000000" font-family="sans-serif" font-size="13" lengthAdjust="spacing" textLength="53" x="594" y="385.0713">«extend»</text><!--MD5=[0874d7388bc750feff0988a63ec9aa85]
link UC_Payment to UC_Auth--><path d="M535.1,190.2762 C584.82,191.3362 640.95,192.5262 687.31,193.5162 " fill="none" id="UC_Payment-to-UC_Auth" style="stroke:#000000;stroke-width:1.0;stroke-dasharray:7.0,7.0;"/><polygon fill="#000000" points="692.34,193.6262,683.4338,189.4216,687.3413,193.5119,683.2509,197.4195,692.34,193.6262" style="stroke:#000000;stroke-width:1.0;"/><text fill="#000000" font-family="sans-serif" font-size="13" lengthAdjust="spacing" textLength="55" x="593" y="188.0713">«include»</text><!--MD5=[7c78e75b2d4536932fed24306ef02b89]
link UC_Payment to PaymentGateway--><path d="M476.94,163.8862 C546.76,139.7062 654.18,102.5262 721.69,79.1462 " fill="none" id="UC_Payment-to-PaymentGateway" style="stroke:#000000;stroke-width:1.0;"/><polygon fill="#000000" points="726.49,77.4862,716.678,76.6349,721.7625,79.1144,719.2831,84.1989,726.49,77.4862" style="stroke:#000000;stroke-width:1.0;"/><!--MD5=[7a16a70825b6a98b074214032b0e4600]
link Barista to UC_ViewQueue--><path d="M96.17,432.5762 C152.47,432.5762 253.39,432.5762 324.84,432.5762 " fill="none" id="Barista-to-UC_ViewQueue" style="stroke:#000000;stroke-width:1.0;"/><polygon fill="#000000" points="329.93,432.5762,320.93,428.5762,324.93,432.5762,320.93,436.5762,329.93,432.5762" style="stroke:#000000;stroke-width:1.0;"/><!--MD5=[1e0ef20f482ec37a2c5021a0d3b957eb]
link Barista to UC_Prepare--><path d="M96.3,416.9862 C107.19,413.2862 118.96,409.5462 130,406.5762 C186.31,391.4162 250.11,378.4562 302.22,368.9262 " fill="none" id="Barista-to-UC_Prepare" style="stroke:#000000;stroke-width:1.0;"/><polygon fill="#000000" points="307.22,368.0162,297.6467,365.7029,302.3018,368.9169,299.0878,373.572,307.22,368.0162" style="stroke:#000000;stroke-width:1.0;"/><!--MD5=[742801fd842c30a65033542ee031b023]
link Barista to UC_ManageMachines--><path d="M96.17,441.6662 C153.63,454.0562 257.57,476.4662 329.22,491.9162 " fill="none" id="Barista-to-UC_ManageMachines" style="stroke:#000000;stroke-width:1.0;"/><polygon fill="#000000" points="334.32,493.0162,326.3695,487.2033,329.4331,491.9588,324.6776,495.0224,334.32,493.0162" style="stroke:#000000;stroke-width:1.0;"/><!--MD5=[01aba67b21dd8b915a5e55cdc4a760b5]
link UC_Prepare to UC_DeductInv--><path d="M530.15,357.0862 C576.98,359.2062 630.08,361.6062 675.58,363.6662 " fill="none" id="UC_Prepare-to-UC_DeductInv" style="stroke:#000000;stroke-width:1.0;stroke-dasharray:7.0,7.0;"/><polygon fill="#000000" points="680.8,363.9062,671.9921,359.4993,675.8052,363.6778,671.6267,367.491,680.8,363.9062" style="stroke:#000000;stroke-width:1.0;"/><text fill="#000000" font-family="sans-serif" font-size="13" lengthAdjust="spacing" textLength="55" x="593" y="357.0713">«include»</text><!--MD5=[13cf97885b26d6895b9bd69af0a80842]
link Waiter to UC_ManageTables--><path d="M73.71,612.0462 C116.62,619.5862 221.15,637.9762 301.7,652.1462 " fill="none" id="Waiter-to-UC_ManageTables" style="stroke:#000000;stroke-width:1.0;"/><polygon fill="#000000" points="306.97,653.0662,298.8039,647.5603,302.0464,652.1956,297.411,655.4381,306.97,653.0662" style="stroke:#000000;stroke-width:1.0;"/><!--MD5=[711da3c0f18c2c78b311fc9ba6716e00]
link Waiter to UC_Serve--><path d="M73.71,607.3462 C118.89,604.5262 232.38,597.4462 314.27,592.3362 " fill="none" id="Waiter-to-UC_Serve" style="stroke:#000000;stroke-width:1.0;"/><polygon fill="#000000" points="319.62,591.9962,310.3862,588.5703,314.6299,592.3107,310.8895,596.5545,319.62,591.9962" style="stroke:#000000;stroke-width:1.0;"/><!--MD5=[8211f82638c7a7684aaab29ba6ec8f12]
link Manager to UC_ManageMenu--><path d="M100.08,846.5762 C141.93,846.5762 205.89,846.5762 264.58,846.5762 " fill="none" id="Manager-to-UC_ManageMenu" style="stroke:#000000;stroke-width:1.0;"/><polygon fill="#000000" points="269.88,846.5762,260.88,842.5762,264.88,846.5762,260.88,850.5762,269.88,846.5762" style="stroke:#000000;stroke-width:1.0;"/><!--MD5=[a1979d1ba05ff59a2f1ae09ffc07f6e7]
link Manager to UC_AuditInv--><path d="M100.05,858.9862 C135.33,868.4862 185.23,881.9062 229,893.5762 C258.26,901.3762 290.25,909.8662 318.91,917.4462 " fill="none" id="Manager-to-UC_AuditInv" style="stroke:#000000;stroke-width:1.0;"/><polygon fill="#000000" points="323.85,918.7562,316.1823,912.5751,319.0184,917.4696,314.1238,920.3057,323.85,918.7562" style="stroke:#000000;stroke-width:1.0;"/><!--MD5=[859d207efe9591ea8d74b7a80d292a83]
link Manager to UC_ManageHR--><path d="M95.91,888.0962 C129.4,919.1862 178.89,960.6562 229,986.5762 C248.99,996.9162 271.36,1005.4162 293.31,1012.3162 " fill="none" id="Manager-to-UC_ManageHR" style="stroke:#000000;stroke-width:1.0;"/><polygon fill="#000000" points="298.28,1013.8462,290.8761,1007.3513,293.5061,1012.3597,288.4977,1014.9896,298.28,1013.8462" style="stroke:#000000;stroke-width:1.0;"/><!--MD5=[d4c0a41b55702a9993dc75bdbe469bbe]
link Manager to UC_EndOfDay--><path d="M100.38,829.8462 C110.1,826.5762 120.34,823.3162 130,820.5762 C193.44,802.5462 266.2,786.1362 321.15,774.5862 " fill="none" id="Manager-to-UC_EndOfDay" style="stroke:#000000;stroke-width:1.0;"/><polygon fill="#000000" points="326.08,773.5562,316.4502,771.4904,321.1866,774.5833,318.0937,779.3198,326.08,773.5562" style="stroke:#000000;stroke-width:1.0;"/><!--MD5=[f78d49b145b5ad54e4ebbe8d4389968e]
link Manager to UC_Discount--><path d="M66.72,888.2362 C88.34,950.4462 138.92,1064.7962 229,1106.5762 C363.26,1168.8462 432.77,1178.7062 562,1106.5762 C694.79,1032.4562 758.02,842.6462 777.33,772.8462 " fill="none" id="Manager-to-UC_Discount" style="stroke:#000000;stroke-width:1.0;"/><polygon fill="#000000" points="778.75,767.6362,772.521,775.265,777.4332,772.4597,780.2386,777.3719,778.75,767.6362" style="stroke:#000000;stroke-width:1.0;"/><text fill="#000000" font-family="sans-serif" font-size="13" lengthAdjust="spacing" textLength="62" x="376.5" y="1103.0713">Authorizes</text><!--MD5=[014e22a2efa44f7030291fcd2ccbfd4f]
link Manager to UC_ManageTables--><path d="M100.4,805.8862 C109.94,798.1462 120.11,790.3662 130,783.5762 C168.23,757.3362 189.4,766.5062 221,732.5762 C226.69,726.4662 222.56,720.8862 229,715.5762 C246.1,701.4762 267.05,691.7162 288.49,684.9762 " fill="none" id="Manager-to-UC_ManageTables" style="stroke:#000000;stroke-width:1.0;"/><polygon fill="#000000" points="293.36,683.5062,283.5851,682.3011,288.5768,684.9625,285.9153,689.9542,293.36,683.5062" style="stroke:#000000;stroke-width:1.0;"/><text fill="#000000" font-family="sans-serif" font-size="13" lengthAdjust="spacing" textLength="67" x="142" y="729.0713">Setup Floor</text><!--MD5=[b45c820cfc3a4b43c2c55a20c7a3c841]
link Manager to UC_ManageMachines--><path d="M66.27,804.9162 C87.85,739.3862 139.03,613.0662 229,548.5762 C251.6,532.3762 279.64,522.5862 306.71,516.7162 " fill="none" id="Manager-to-UC_ManageMachines" style="stroke:#000000;stroke-width:1.0;"/><polygon fill="#000000" points="311.75,515.6662,302.119,513.6061,306.8573,516.6962,303.7671,521.4345,311.75,515.6662" style="stroke:#000000;stroke-width:1.0;"/><text fill="#000000" font-family="sans-serif" font-size="13" lengthAdjust="spacing" textLength="67" x="142" y="557.0713">Setup Floor</text><!--MD5=[c6039b09d7c2d9d7d51030c6f22ca849]
link Customer to UC_CreateOrder--><path d="M83.54,308.4162 C97.59,310.0462 114.63,311.7662 130,312.5762 C170.39,314.6962 182.63,325.3662 221,312.5762 C225.22,311.1662 224.95,308.4062 229,306.5762 C259.36,292.8562 294.95,284.1562 326.27,278.6662 " fill="none" id="Customer-to-UC_CreateOrder" style="stroke:#000000;stroke-width:1.0;"/><polygon fill="#000000" points="331.25,277.8162,321.7045,275.3905,326.3215,278.659,323.0531,283.276,331.25,277.8162" style="stroke:#000000;stroke-width:1.0;"/><text fill="#000000" font-family="sans-serif" font-size="13" lengthAdjust="spacing" textLength="55" x="148" y="309.0713">Requests</text><!--MD5=[d118b745f7deb5032db7a42455cfcab5]
link Customer to UC_Payment--><path d="M83.55,290.9062 C117.96,275.3462 176.75,249.8462 229,232.5762 C255.71,223.7462 285.16,215.6462 312.27,208.8162 " fill="none" id="Customer-to-UC_Payment" style="stroke:#000000;stroke-width:1.0;"/><polygon fill="#000000" points="317.31,207.5562,307.6086,205.8584,312.4593,208.7689,309.5489,213.6196,317.31,207.5562" style="stroke:#000000;stroke-width:1.0;"/><text fill="#000000" font-family="sans-serif" font-size="13" lengthAdjust="spacing" textLength="89" x="131" y="233.0713">Provides Funds</text><!--MD5=[100f1629b9334a5a991a3f14f9a2b312]
@startuml
left to right direction
skinparam packageStyle rectangle
skinparam usecase {
  BackgroundColor LightBlue
  BorderColor DarkBlue
  ArrowColor Black
}

actor "Cashier" as Cashier
actor "Barista / Chef" as Barista
actor "Waiter" as Waiter
actor "Store Manager" as Manager
actor "Customer" as Customer
actor "Payment Gateway" as PaymentGateway <<External System>>

rectangle "NebulaX Coffee Shop System" {
  
  ' General Security
  usecase "Authenticate Employee" as UC_Auth
  
  ' POS Module
  usecase "Create Quick Order" as UC_CreateOrder
  usecase "Calculate Total & Tax (IVA)" as UC_CalcTotal
  usecase "Apply Special Discount" as UC_Discount
  usecase "Process Payment (Visitor Dispatch)" as UC_Payment
  
  ' KDS and Inventory Module
  usecase "View KDS Queue" as UC_ViewQueue
  usecase "Update Status to Preparing/Ready" as UC_Prepare
  usecase "Deduct Inventory by Recipe" as UC_DeductInv
  
  ' Floor Module
  usecase "Manage Tables (State/Assignment)" as UC_ManageTables
  usecase "Manage Machines (State)" as UC_ManageMachines
  usecase "Mark Order as Served" as UC_Serve
  
  ' Backoffice Module (Manager)
  usecase "Manage Catalog (Products & Recipes)" as UC_ManageMenu
  usecase "Audit Inventory (Standardized Units)" as UC_AuditInv
  usecase "Manage Human Resources (Hire/Fire/Shifts)" as UC_ManageHR
  usecase "Generate Financial Z-Report" as UC_EndOfDay
}

' Cashier Relations
Cashier - -> UC_CreateOrder
Cashier - -> UC_Payment

' POS Includes/Extends
UC_CreateOrder ..> UC_Auth : <<include>>
UC_CreateOrder ..> UC_CalcTotal : <<include>>
UC_Discount .up.> UC_CreateOrder : <<extend>>
UC_Payment ..> UC_Auth : <<include>>

' Payment interacts with an external system
UC_Payment - -> PaymentGateway

' Barista/Chef Relations
Barista - -> UC_ViewQueue
Barista - -> UC_Prepare
Barista - -> UC_ManageMachines
UC_Prepare ..> UC_DeductInv : <<include>>

' Waiter Relations
Waiter - -> UC_ManageTables
Waiter - -> UC_Serve

' Manager Relations
Manager - -> UC_ManageMenu
Manager - -> UC_AuditInv
Manager - -> UC_ManageHR
Manager - -> UC_EndOfDay
Manager - -> UC_Discount : Authorizes
Manager - -> UC_ManageTables : Setup Floor
Manager - -> UC_ManageMachines : Setup Floor

' Customer Relations
Customer - -> UC_CreateOrder : Requests
Customer - -> UC_Payment : Provides Funds

@enduml

@startuml
left to right direction
skinparam packageStyle rectangle
skinparam usecase {
  BackgroundColor LightBlue
  BorderColor DarkBlue
  ArrowColor Black
}

actor "Cashier" as Cashier
actor "Barista / Chef" as Barista
actor "Waiter" as Waiter
actor "Store Manager" as Manager
actor "Customer" as Customer
actor "Payment Gateway" as PaymentGateway <<External System>>

rectangle "NebulaX Coffee Shop System" {
  
  usecase "Authenticate Employee" as UC_Auth
  
  usecase "Create Quick Order" as UC_CreateOrder
  usecase "Calculate Total & Tax (IVA)" as UC_CalcTotal
  usecase "Apply Special Discount" as UC_Discount
  usecase "Process Payment (Visitor Dispatch)" as UC_Payment
  
  usecase "View KDS Queue" as UC_ViewQueue
  usecase "Update Status to Preparing/Ready" as UC_Prepare
  usecase "Deduct Inventory by Recipe" as UC_DeductInv
  
  usecase "Manage Tables (State/Assignment)" as UC_ManageTables
  usecase "Manage Machines (State)" as UC_ManageMachines
  usecase "Mark Order as Served" as UC_Serve
  
  usecase "Manage Catalog (Products & Recipes)" as UC_ManageMenu
  usecase "Audit Inventory (Standardized Units)" as UC_AuditInv
  usecase "Manage Human Resources (Hire/Fire/Shifts)" as UC_ManageHR
  usecase "Generate Financial Z-Report" as UC_EndOfDay
}

Cashier - -> UC_CreateOrder
Cashier - -> UC_Payment

UC_CreateOrder ..> UC_Auth : <<include>>
UC_CreateOrder ..> UC_CalcTotal : <<include>>
UC_Discount .up.> UC_CreateOrder : <<extend>>
UC_Payment ..> UC_Auth : <<include>>

UC_Payment - -> PaymentGateway

Barista - -> UC_ViewQueue
Barista - -> UC_Prepare
Barista - -> UC_ManageMachines
UC_Prepare ..> UC_DeductInv : <<include>>

Waiter - -> UC_ManageTables
Waiter - -> UC_Serve

Manager - -> UC_ManageMenu
Manager - -> UC_AuditInv
Manager - -> UC_ManageHR
Manager - -> UC_EndOfDay
Manager - -> UC_Discount : Authorizes
Manager - -> UC_ManageTables : Setup Floor
Manager - -> UC_ManageMachines : Setup Floor

Customer - -> UC_CreateOrder : Requests
Customer - -> UC_Payment : Provides Funds

@enduml

PlantUML version 1.2021.00(Sun Jan 10 05:25:05 ECT 2021)
(MIT source distribution)
Java Runtime: OpenJDK Runtime Environment
JVM: OpenJDK 64-Bit Server VM
Default Encoding: Cp1252
Language: es
Country: EC
--></g></svg>